<svg xmlns="http://www.w3.org/2000/svg" xmlns:xlink="http://www.w3.org/1999/xlink" viewBox="0 0 850.39 187.42"><defs><style>.a{fill:url(#a);}.b{fill:url(#b);}.c{fill:url(#c);}.d{fill:url(#d);}.e{fill:url(#e);}.f{fill:url(#f);}.g{fill:url(#g);}.h{fill:url(#h);}.i{fill:url(#i);}.j{fill:url(#j);}.k{fill:url(#k);}.l{fill:url(#l);}.m{fill:url(#m);}.n{fill:url(#n);}.o{fill:url(#o);}.p{fill:url(#p);}.q{opacity:0.85;}.r{fill:#e5e5e5;}.s{opacity:0.93;}.t{mask:url(#q);}.u{fill:url(#r);}.v{mask:url(#s);}.w{fill:url(#t);}.x{mask:url(#u);}.y{fill:url(#v);}.z{mask:url(#w);}.aa{fill:url(#x);}.ab{mask:url(#y);}.ac{fill:url(#z);}.ad{mask:url(#aa);}.ae{fill:url(#ab);}.af{mask:url(#ac);}.ag{fill:url(#ad);}.ah{mask:url(#ae);}.ai{fill:url(#af);}.aj{mask:url(#ag);}.ak{fill:url(#ah);}.al{mask:url(#ai);}.am{fill:url(#aj);}.an{mask:url(#ak);}.ao{fill:url(#al);}.ap{mask:url(#am);}.aq{fill:url(#an);}.ar{mask:url(#ao);}.as{fill:url(#ap);}.at{mask:url(#aq);}.au{fill:url(#ar);}.av{mask:url(#as);}.aw{fill:url(#at);}.ax{mask:url(#au);}.ay{fill:url(#av);}</style><linearGradient id="a" x1="577.23" y1="8.87" x2="850.59" y2="8.87" gradientUnits="userSpaceOnUse"><stop offset="0"/><stop offset="0.02" stop-color="#0b0b0b"/><stop offset="0.11" stop-color="#3e3e3e"/><stop offset="0.21" stop-color="#6b6b6b"/><stop offset="0.31" stop-color="#919191"/><stop offset="0.41" stop-color="#b0b0b0"/><stop offset="0.52" stop-color="#c8c8c8"/><stop offset="0.63" stop-color="#d9d9d9"/><stop offset="0.75" stop-color="#e3e3e3"/><stop offset="0.9" stop-color="#e6e6e6"/><stop offset="1"/></linearGradient><linearGradient id="b" x1="576.86" y1="26.33" x2="850.21" y2="26.33" gradientUnits="userSpaceOnUse"><stop offset="0.13"/><stop offset="0.18" stop-color="#171717"/><stop offset="0.32" stop-color="#5d5d5d"/><stop offset="0.46" stop-color="#979797"/><stop offset="0.58" stop-color="#c4c4c4"/><stop offset="0.69" stop-color="#e4e4e4"/><stop offset="0.78" stop-color="#f8f8f8"/><stop offset="0.85" stop-color="#fff"/><stop offset="1"/></linearGradient><linearGradient id="c" x1="408.28" y1="131.13" x2="681.64" y2="131.13" gradientTransform="matrix(-1, 0, 0, 1, 681.83, 0)" gradientUnits="userSpaceOnUse"><stop offset="0.38"/><stop offset="0.56" stop-color="#666"/><stop offset="0.76" stop-color="#d3d3d3"/><stop offset="0.85" stop-color="#fff"/><stop offset="0.99"/></linearGradient><linearGradient id="d" x1="408.28" y1="43.8" x2="681.64" y2="43.8" gradientTransform="matrix(-1, 0, 0, 1, 681.83, 0)" gradientUnits="userSpaceOnUse"><stop offset="0.29"/><stop offset="0.39" stop-color="#666"/><stop offset="0.5" stop-color="#d3d3d3"/><stop offset="0.55" stop-color="#fff"/><stop offset="1"/></linearGradient><linearGradient id="e" x1="408.28" y1="78.73" x2="681.64" y2="78.73" gradientTransform="matrix(-1, 0, 0, 1, 681.83, 0)" gradientUnits="userSpaceOnUse"><stop offset="0.2"/><stop offset="0.23" stop-color="#262626"/><stop offset="0.26" stop-color="#595959"/><stop offset="0.3" stop-color="#858585"/><stop offset="0.34" stop-color="#ababab"/><stop offset="0.38" stop-color="#c9c9c9"/><stop offset="0.42" stop-color="#e1e1e1"/><stop offset="0.47" stop-color="#f2f2f2"/><stop offset="0.52" stop-color="#fcfcfc"/><stop offset="0.58" stop-color="#fff"/><stop offset="0.89"/></linearGradient><linearGradient id="f" x1="408.66" y1="183.53" x2="682.02" y2="183.53" gradientTransform="matrix(-1, 0, 0, 1, 681.83, 0)" xlink:href="#a"/><linearGradient id="g" x1="408.28" y1="26.33" x2="681.64" y2="26.33" gradientTransform="matrix(-1, 0, 0, 1, 681.83, 0)" xlink:href="#b"/><linearGradient id="h" x1="408.28" y1="97.32" x2="681.64" y2="97.32" gradientTransform="matrix(-1, 0, 0, 1, 681.83, 0)" gradientUnits="userSpaceOnUse"><stop offset="0.1"/><stop offset="0.16" stop-color="#141414"/><stop offset="0.28" stop-color="#484848"/><stop offset="0.45" stop-color="#9d9d9d"/><stop offset="0.63" stop-color="#fff"/><stop offset="1"/></linearGradient><linearGradient id="i" x1="576.86" y1="43.8" x2="850.21" y2="43.8" gradientTransform="matrix(1, 0, 0, 1, 0, 0)" xlink:href="#h"/><linearGradient id="j" x1="576.86" y1="78.73" x2="850.21" y2="78.73" gradientTransform="matrix(1, 0, 0, 1, 0, 0)" xlink:href="#e"/><linearGradient id="k" x1="576.86" y1="96.2" x2="850.21" y2="96.2" gradientTransform="matrix(1, 0, 0, 1, 0, 0)" xlink:href="#d"/><linearGradient id="l" x1="576.86" y1="131.13" x2="850.21" y2="131.13" gradientTransform="matrix(1, 0, 0, 1, 0, 0)" xlink:href="#c"/><linearGradient id="m" x1="576.86" y1="148.6" x2="850.21" y2="148.6" gradientUnits="userSpaceOnUse"><stop offset="0.15"/><stop offset="0.19" stop-color="#1a1a1a"/><stop offset="0.28" stop-color="#555"/><stop offset="0.36" stop-color="#898989"/><stop offset="0.45" stop-color="#b4b4b4"/><stop offset="0.53" stop-color="#d4d4d4"/><stop offset="0.61" stop-color="#ececec"/><stop offset="0.68" stop-color="#fafafa"/><stop offset="0.74" stop-color="#fff"/><stop offset="0.96"/></linearGradient><linearGradient id="n" x1="576.86" y1="183.53" x2="850.21" y2="183.53" gradientUnits="userSpaceOnUse"><stop offset="0.11"/><stop offset="0.11" stop-color="#010101"/><stop offset="0.2" stop-color="#434343"/><stop offset="0.29" stop-color="#7c7c7c"/><stop offset="0.38" stop-color="#ababab"/><stop offset="0.46" stop-color="#d0d0d0"/><stop offset="0.54" stop-color="#eaeaea"/><stop offset="0.61" stop-color="#f9f9f9"/><stop offset="0.66" stop-color="#fff"/><stop offset="0.99"/></linearGradient><linearGradient id="o" x1="408.28" y1="148.6" x2="681.64" y2="148.6" gradientTransform="matrix(-1, 0, 0, 1, 681.83, 0)" xlink:href="#n"/><linearGradient id="p" x1="408.28" y1="8.86" x2="681.64" y2="8.86" gradientTransform="matrix(-1, 0, 0, 1, 681.83, 0)" xlink:href="#m"/><mask id="q" x="577.05" y="2.08" width="273.54" height="6.35" maskUnits="userSpaceOnUse"><g transform="translate(0 -3.61)"><rect class="a" x="577.23" y="5.69" width="273.36" height="6.35"/></g></mask><linearGradient id="r" x1="577.05" y1="5.25" x2="850.39" y2="5.25" gradientUnits="userSpaceOnUse"><stop offset="0" stop-color="#fff"/><stop offset="0.11" stop-color="#eee"/><stop offset="0.31" stop-color="#d6d6d6"/><stop offset="0.43" stop-color="#cdcdcd"/><stop offset="0.72" stop-color="#cdcdcd"/><stop offset="0.77" stop-color="#d8d8d8"/><stop offset="0.91" stop-color="#f1f1f1"/><stop offset="1" stop-color="#fbfbfb"/></linearGradient><mask id="s" x="576.67" y="19.55" width="273.54" height="6.35" maskUnits="userSpaceOnUse"><g transform="translate(0 -3.61)"><rect class="b" x="576.86" y="23.16" width="273.36" height="6.35"/></g></mask><linearGradient id="t" x1="576.67" y1="22.72" x2="850.02" y2="22.72" xlink:href="#r"/><mask id="u" x="576.67" y="37.01" width="273.54" height="6.36" maskUnits="userSpaceOnUse"><g transform="translate(0 -3.61)"><rect class="i" x="576.86" y="40.62" width="273.36" height="6.36"/></g></mask><linearGradient id="v" x1="576.67" y1="40.19" x2="850.02" y2="40.19" xlink:href="#r"/><mask id="w" x="576.67" y="71.94" width="273.54" height="6.35" maskUnits="userSpaceOnUse"><g transform="translate(0 -3.61)"><rect class="j" x="576.86" y="75.56" width="273.36" height="6.35"/></g></mask><linearGradient id="x" x1="576.67" y1="75.12" x2="850.02" y2="75.12" xlink:href="#r"/><mask id="y" x="576.67" y="89.41" width="273.54" height="6.35" maskUnits="userSpaceOnUse"><g transform="translate(0 -3.61)"><rect class="k" x="576.86" y="93.02" width="273.36" height="6.35"/></g></mask><linearGradient id="z" x1="576.67" y1="92.59" x2="850.02" y2="92.59" xlink:href="#r"/><mask id="aa" x="576.67" y="124.35" width="273.54" height="6.35" maskUnits="userSpaceOnUse"><g transform="translate(0 -3.61)"><rect class="l" x="576.86" y="127.96" width="273.36" height="6.35"/></g></mask><linearGradient id="ab" x1="576.67" y1="127.52" x2="850.02" y2="127.52" xlink:href="#r"/><mask id="ac" x="576.67" y="141.81" width="273.54" height="6.35" maskUnits="userSpaceOnUse"><g transform="translate(0 -3.61)"><rect class="m" x="576.86" y="145.42" width="273.36" height="6.35"/></g></mask><linearGradient id="ad" x1="576.67" y1="144.98" x2="850.02" y2="144.98" xlink:href="#r"/><mask id="ae" x="576.67" y="176.75" width="273.54" height="6.35" maskUnits="userSpaceOnUse"><g transform="translate(0 -3.61)"><rect class="n" x="576.86" y="180.36" width="273.36" height="6.35"/></g></mask><linearGradient id="af" x1="576.67" y1="179.92" x2="850.02" y2="179.92" xlink:href="#r"/><mask id="ag" x="0.18" y="141.81" width="273.54" height="6.35" maskUnits="userSpaceOnUse"><g transform="translate(0 -3.61)"><rect class="o" x="0.18" y="145.42" width="273.36" height="6.35"/></g></mask><linearGradient id="ah" x1="0.37" y1="144.98" x2="273.73" y2="144.98" xlink:href="#r"/><mask id="ai" x="0.18" y="2.07" width="273.54" height="6.36" maskUnits="userSpaceOnUse"><g transform="translate(0 -3.61)"><rect class="p" x="0.18" y="5.69" width="273.36" height="6.36"/></g></mask><linearGradient id="aj" x1="0.37" y1="5.25" x2="273.73" y2="5.25" xlink:href="#r"/><mask id="ak" x="0.18" y="124.35" width="273.54" height="6.35" maskUnits="userSpaceOnUse"><g transform="translate(0 -3.61)"><rect class="c" x="0.18" y="127.96" width="273.36" height="6.35"/></g></mask><linearGradient id="al" x1="0.37" y1="127.52" x2="273.73" y2="127.52" xlink:href="#r"/><mask id="am" x="0.18" y="37.01" width="273.54" height="6.34" maskUnits="userSpaceOnUse"><g transform="translate(0 -3.61)"><rect class="d" x="0.18" y="40.63" width="273.36" height="6.34"/></g></mask><linearGradient id="an" x1="0.37" y1="40.18" x2="273.73" y2="40.18" xlink:href="#r"/><mask id="ao" x="0.18" y="71.94" width="273.54" height="6.35" maskUnits="userSpaceOnUse"><g transform="translate(0 -3.61)"><rect class="e" x="0.18" y="75.56" width="273.36" height="6.35"/></g></mask><linearGradient id="ap" x1="0.37" y1="75.12" x2="273.73" y2="75.12" xlink:href="#r"/><mask id="aq" x="-0.19" y="176.75" width="273.54" height="6.35" maskUnits="userSpaceOnUse"><g transform="translate(0 -3.61)"><rect class="f" x="-0.19" y="180.36" width="273.36" height="6.35"/></g></mask><linearGradient id="ar" x1="0" y1="179.92" x2="273.35" y2="179.92" xlink:href="#r"/><mask id="as" x="0.18" y="19.55" width="273.54" height="6.35" maskUnits="userSpaceOnUse"><g transform="translate(0 -3.61)"><rect class="g" x="0.18" y="23.16" width="273.36" height="6.35"/></g></mask><linearGradient id="at" x1="0.37" y1="22.72" x2="273.73" y2="22.72" xlink:href="#r"/><mask id="au" x="0.18" y="90.54" width="273.54" height="6.35" maskUnits="userSpaceOnUse"><g transform="translate(0 -3.61)"><rect class="h" x="0.18" y="94.15" width="273.36" height="6.35"/></g></mask><linearGradient id="av" x1="0.37" y1="93.71" x2="273.73" y2="93.71" xlink:href="#r"/></defs><title>ETOS Logo</title><g class="q"><path class="r" d="M338,35.33a31.35,31.35,0,0,0-2.28-11.59c-.08-.2-.14-.41-.23-.61l0-.05c-.29-.68-.62-1.33-1-2a30.45,30.45,0,0,0-6-8.18,33.89,33.89,0,0,0-10.2-6.8,31.33,31.33,0,0,0-12.47-2.51h-.54v0a31.13,31.13,0,0,0-11.93,2.49,33.94,33.94,0,0,0-10.2,6.8,31,31,0,0,0-6.93,10.2,31.62,31.62,0,0,0-2.52,12.47v8.76l24.69,24.7V26.54a7,7,0,0,1,2.14-5.16,7.18,7.18,0,0,1,4.75-2.09v0c.14,0,.27,0,.41,0a7.68,7.68,0,0,1,3.89,1c.19.11.39.23.57.35a6.87,6.87,0,0,1,1,.79,7,7,0,0,1,2.14,5.16V68h0v33.33l-.08-.08v30.21l.07.07v36.35a7.43,7.43,0,1,1-14.86,0V138.8l-24.69-24.43V159a30.77,30.77,0,0,0,2.52,12.34,32.89,32.89,0,0,0,17.13,17.13A31.11,31.11,0,0,0,305.31,191v0h2V191a30.91,30.91,0,0,0,11-2.44,34,34,0,0,0,10.2-6.79,31.05,31.05,0,0,0,6.93-10.21,31.51,31.51,0,0,0,2.37-9.23c.1-1.06.15-2.14.15-3.24h0V35.61h0C338,35.52,338,35.42,338,35.33Z" transform="translate(0 -3.61)"/><polygon class="r" points="298.42 83.36 273.73 59.5 273.73 89.71 298.42 113.56 305.72 120.62 305.72 90.42 298.42 83.36"/><polygon class="r" points="347.02 0 347.02 15.39 347.02 24.43 371.7 24.43 371.7 187.42 396.64 187.42 396.64 172.04 396.64 112.77 396.64 24.43 421.34 24.43 421.34 15.39 421.34 0 347.02 0"/><path class="r" d="M492.1,23.14a30.88,30.88,0,0,0-6.93-10.2A33.81,33.81,0,0,0,475,6.13a31,31,0,0,0-11.28-2.45V3.61H462v0A31,31,0,0,0,450,6.13a34,34,0,0,0-10.21,6.8,30.94,30.94,0,0,0-6.92,10.2,31.32,31.32,0,0,0-2.42,10.31h0c0,.72-.11,1.43-.11,2.16V159c0,.73.06,1.45.11,2.17h0a31.24,31.24,0,0,0,2.42,10.3,30.87,30.87,0,0,0,6.92,10.2,33.93,33.93,0,0,0,10.21,6.8A31.13,31.13,0,0,0,462,191v0h1.72V191A31,31,0,0,0,475,188.51a33.76,33.76,0,0,0,10.2-6.8,30.81,30.81,0,0,0,6.93-10.2A31.51,31.51,0,0,0,494.62,159V35.61A31.54,31.54,0,0,0,492.1,23.14Zm-22.17,83.4v20.11h0v41.47a7,7,0,0,1-2.14,5.16,7.64,7.64,0,0,1-5.28,2.38h0a7.69,7.69,0,0,1-5.28-2.38,7.09,7.09,0,0,1-2.13-5.16V126.65h0V68h0V26.54a7.09,7.09,0,0,1,2.13-5.16A7.61,7.61,0,0,1,462.48,19h0a7.57,7.57,0,0,1,5.28,2.37,7,7,0,0,1,2.14,5.16V68h0v38.54Z" transform="translate(0 -3.61)"/><g class="s"><path class="r" d="M565.22,10.76a33.4,33.4,0,0,0-7.62-4.63,32.46,32.46,0,0,0-25.07,0,31.68,31.68,0,0,0-7.67,4.63Z" transform="translate(0 -3.61)"/><path class="r" d="M537.69,27.81v-1a7.32,7.32,0,0,1,2.14-5.41A7,7,0,0,1,545,19.23a7.32,7.32,0,0,1,7.56,7.56v1h23.69a29.16,29.16,0,0,0-1.52-4.55A32.64,32.64,0,0,0,568,13.32H522.09a34.06,34.06,0,0,0-6.57,9.94A30.44,30.44,0,0,0,514,27.81Z" transform="translate(0 -3.61)"/><path class="r" d="M577.25,44.87V35.6a32.08,32.08,0,0,0-.47-5.22H552.56V44.62l.25.25Z" transform="translate(0 -3.61)"/><polygon class="r" points="555.4 43.82 577.25 65.44 577.25 43.82 555.4 43.82"/><path class="r" d="M537.69,44.67V30.38H513.46A32.08,32.08,0,0,0,513,35.6v9.07Z" transform="translate(0 -3.61)"/><rect class="r" x="513.01" y="43.63" width="24.68" height="31.74"/><rect class="r" x="513.01" y="77.94" width="24.68" height="14.49"/><polygon class="r" points="568.35 126.54 552.56 110.75 552.56 126.54 568.35 126.54"/><polygon class="r" points="537.69 126.54 537.69 123.04 537.69 123.04 537.69 94.99 513.01 94.99 513.01 116.56 513.01 123.04 513.01 126.54 537.69 126.54"/><polygon class="r" points="577.25 143.6 577.25 135.44 570.91 129.11 552.56 129.11 552.56 143.6 577.25 143.6"/><rect class="r" x="513.01" y="129.11" width="24.68" height="14.49"/><path class="r" d="M522.09,181.33h46.08a31,31,0,0,0,6.56-9.82A31.51,31.51,0,0,0,577.25,159v-9.27H552.56v18.34a7.06,7.06,0,0,1-2.14,5.17,7.28,7.28,0,0,1-4.75,2.08v0c-.14,0-.27,0-.41,0a7.38,7.38,0,0,1-5.42-2.13,7.07,7.07,0,0,1-2.14-5.17V149.77H513V159a31.6,31.6,0,0,0,2.51,12.47A31.18,31.18,0,0,0,522.09,181.33Z" transform="translate(0 -3.61)"/><path class="r" d="M524.94,183.88a34.06,34.06,0,0,0,7.72,4.63A31.19,31.19,0,0,0,545.13,191h.53v0a31.09,31.09,0,0,0,11.93-2.49,34.11,34.11,0,0,0,7.72-4.63Z" transform="translate(0 -3.61)"/></g></g><g class="q"><g class="t"><rect class="u" x="577.05" y="2.08" width="273.34" height="6.35"/></g><g class="v"><rect class="w" x="576.67" y="19.55" width="273.35" height="6.35"/></g><g class="x"><rect class="y" x="576.67" y="37.01" width="273.35" height="6.36"/></g><g class="z"><rect class="aa" x="576.67" y="71.94" width="273.35" height="6.35"/></g><g class="ab"><rect class="ac" x="576.67" y="89.41" width="273.35" height="6.35"/></g><g class="ad"><rect class="ae" x="576.67" y="124.35" width="273.35" height="6.35"/></g><g class="af"><rect class="ag" x="576.67" y="141.81" width="273.35" height="6.35"/></g><g class="ah"><rect class="ai" x="576.67" y="176.75" width="273.35" height="6.35"/></g><g class="aj"><rect class="ak" x="0.37" y="141.81" width="273.35" height="6.35"/></g><g class="al"><rect class="am" x="0.37" y="2.07" width="273.35" height="6.36"/></g><g class="an"><rect class="ao" x="0.37" y="124.35" width="273.35" height="6.35"/></g><g class="ap"><rect class="aq" x="0.37" y="37.01" width="273.35" height="6.34"/></g><g class="ar"><rect class="as" x="0.37" y="71.94" width="273.35" height="6.35"/></g><g class="at"><rect class="au" y="176.75" width="273.35" height="6.35"/></g><g class="av"><rect class="aw" x="0.37" y="19.55" width="273.35" height="6.35"/></g><g class="ax"><rect class="ay" x="0.37" y="90.54" width="273.35" height="6.35"/></g></g></svg>